<svg xmlns="http://www.w3.org/2000/svg" viewBox="0 0 546 546"><defs><style>.cls-1{fill:#5f2f1b;}.cls-2{fill:#030504;}.cls-3{fill:none;}.cls-4{fill:#484d64;}</style></defs><g id="Layer_2" data-name="Layer 2"><g id="Layer_1-2" data-name="Layer 1"><path class="cls-1" d="M11.3,194.94l14.75.69C19.15,219.2,14,248.21,14,273A259.11,259.11,0,0,0,511.69,373.83a259.11,259.11,0,0,0-476.38-204H140.24v13.95H14.71l3.68-9.5A274,274,0,1,1,0,273,282.43,282.43,0,0,1,11.3,194.94Z"/><path class="cls-2" d="M145.25,160.86v25.71a3.39,3.39,0,0,0,.49,1.77,3.53,3.53,0,0,0,3,1.77h48.52a3.56,3.56,0,0,0,3.55-3.54V160.86a3.56,3.56,0,0,0-3.55-3.55H148.79a3.53,3.53,0,0,0-3.51,3.26A2.58,2.58,0,0,0,145.25,160.86Z"/><path class="cls-3" d="M378.88,402.15a134.13,134.13,0,0,0,49.75-90.54l16.92,1.86A152,152,0,0,1,277.82,447.91L279.68,431A134.07,134.07,0,0,0,378.88,402.15Z"/><path class="cls-3" d="M380.91,301.12l20.3,2.24a113.66,113.66,0,0,1-125.3,100.43l2.24-20.3A93.11,93.11,0,0,0,380.91,301.12Z"/><path class="cls-3" d="M309.39,210.89a67.87,67.87,0,0,1,34.24,48.26c10.27,61.61-52.3,106-107.06,76a67.87,67.87,0,0,1-34.24-48.26C192.06,225.24,254.63,180.85,309.39,210.89Z"/><path class="cls-4" d="M64.05,190h66v3a3.49,3.49,0,0,0,3.49,3.49h66.67a3.49,3.49,0,0,0,3.49-3.49V153.38a3.49,3.49,0,0,0-3.49-3.49H133.51a3.49,3.49,0,0,0-3.49,3.49v4.56H79.82C133.44,68,246.87,21.61,356.5,64.08,430.72,92.82,494.56,182,497.71,261.53c6.73,170.14-164.79,287-322.56,214.33A218.09,218.09,0,0,1,50.36,307.36C44.57,264.65,50.19,224.94,64.05,190ZM389.53,415.43a151,151,0,0,0,56-102l-16.92-1.86A135,135,0,0,1,279.68,431l-1.86,16.92A151.05,151.05,0,0,0,389.53,415.43Zm11.68-112.07-20.3-2.24a93.11,93.11,0,0,1-102.76,82.37l-2.24,20.3A113.66,113.66,0,0,0,401.21,303.36ZM202.33,286.85a67.87,67.87,0,0,0,34.24,48.26c54.76,30,117.33-14.35,107.06-76a67.87,67.87,0,0,0-34.24-48.26C254.63,180.85,192.06,225.24,202.33,286.85Z"/></g></g></svg>