<svg version="1.1" viewBox="0 0 341.06 125.1" xmlns="http://www.w3.org/2000/svg">
 <defs>
  <style>.cls-1{fill:#7cae7a;}.cls-2,.cls-6{fill:#5f2f1b;}.cls-3{fill:#030504;}.cls-4{fill:none;}.cls-5{fill:#484d64;}.cls-6{stroke:#683b11;stroke-miterlimit:10;stroke-width:0.25px;}.cls-7{font-size:19px;font-family:mr_Daray-Daray, mr_Daray;}</style>
 </defs>
 <path class="cls-1" d="m339 78.92h-11.4c-0.08 0-0.15 0.19-0.15 0.42s0.07 0.42 0.15 0.42h11.4c0.08 0 0.14-0.19 0.14-0.42s-0.14-0.42-0.14-0.42z"/>
 <path class="cls-1" d="m152.66 78.58h-20.89c-0.15 0-0.26 0.19-0.26 0.42s0.11 0.43 0.26 0.43h20.89c0.14 0 0.26-0.19 0.26-0.43s-0.12-0.42-0.26-0.42z"/>
 <path class="cls-1" d="m6.62 77.84h-6.54s-0.08 0.16-0.08 0.43 0 0.42 0.08 0.42h6.54s0.08-0.19 0.08-0.42-0.03-0.43-0.08-0.43z"/>
 <path class="cls-1" d="m169 91.89c-1.06 0-1.92-0.37-1.92-0.83v-15c0-0.46 0.86-0.83 1.92-0.83s1.91 0.37 1.91 0.83v15c0.02 0.46-0.83 0.83-1.91 0.83z"/>
 <path class="cls-1" d="m175.21 85.55c-1.06 0-1.92-0.37-1.92-0.83v-7.48c0-0.46 0.86-0.83 1.92-0.83s1.91 0.37 1.91 0.83v7.48c0 0.46-0.85 0.83-1.91 0.83z"/>
 <path class="cls-1" d="m121.73 84.34h-0.51c-0.92 0-1.66-0.32-1.66-0.71v-7.4c0-0.46 0.86-0.83 1.92-0.83 1 0 1.91 0.37 1.91 0.83v7.4c0 0.37-0.74 0.71-1.66 0.71z"/>
 <path class="cls-1" d="m230.91 80.79c-1 0-1.91-0.37-1.91-0.83v-12.86c0-0.46 0.86-0.83 1.91-0.83 1.06 0 1.92 0.37 1.92 0.83v12.9c0 0.42-0.83 0.79-1.92 0.79z"/>
 <path class="cls-1" d="m224.92 63.76c-1.06 0-1.92-0.37-1.92-0.83v-1.93c0-0.45 0.86-0.82 1.92-0.82 1.05 0 1.91 0.37 1.91 0.82v1.92c0 0.47-0.83 0.84-1.91 0.84z"/>
 <path class="cls-1" d="m230.91 99.68c-1 0-1.91-0.37-1.91-0.83v-16.85c0-0.45 0.86-0.82 1.91-0.82 1.06 0 1.92 0.37 1.92 0.82v16.85c0 0.46-0.83 0.83-1.92 0.83z"/>
 <path class="cls-1" d="m237.1 91.52c-1 0-1.91-0.37-1.91-0.82v-19.44c0-0.45 0.86-0.82 1.91-0.82 1.06 0 1.92 0.37 1.92 0.82v19.44c-0.02 0.45-0.86 0.82-1.92 0.82z"/>
 <path class="cls-1" d="m224.72 74.3c-1.05 0-1.91-0.37-1.91-0.82v-8.38c0-0.45 0.86-0.82 1.91-0.82 1.06 0 1.92 0.37 1.92 0.82v8.38c0 0.45-0.86 0.82-1.92 0.82z"/>
 <path class="cls-1" d="m224.72 102.6c-1.05 0-1.91-0.37-1.91-0.82v-26c0-0.45 0.86-0.82 1.91-0.82 1.06 0 1.92 0.37 1.92 0.82v26c0 0.45-0.86 0.82-1.92 0.82z"/>
 <path class="cls-1" d="m156.9 87.46h-0.52c-0.92 0-1.66-0.32-1.66-0.72v-10.91c0-0.45 0.86-0.82 1.92-0.82s1.91 0.37 1.91 0.82v10.91c0 0.4-0.74 0.72-1.65 0.72z"/>
 <path class="cls-1" d="m156.9 74.41h-0.52c-0.92 0-1.66-0.32-1.66-0.72v-1.87c0-0.46 0.86-0.83 1.92-0.83s1.91 0.37 1.91 0.83v1.87c0 0.4-0.74 0.72-1.65 0.72z"/>
 <path class="cls-1" d="m212.35 98.81c1.05 0 1.91-0.37 1.91-0.83v-40.8c0-0.45-0.86-0.82-1.91-0.82-1.06 0-1.92 0.37-1.92 0.82v40.82c0 0.44 0.86 0.81 1.92 0.81z"/>
 <path class="cls-1" d="m212.35 105.62c1.05 0 1.91-0.37 1.91-0.83v-4.41c0-0.45-0.86-0.82-1.91-0.82-1.06 0-1.92 0.37-1.92 0.82v4.41c0 0.46 0.86 0.83 1.92 0.83z"/>
 <path class="cls-1" d="m193.78 102.29c1.05 0 1.91-0.37 1.91-0.83v-41c0-0.45-0.86-0.82-1.91-0.82-1.06 0-1.92 0.37-1.92 0.82v41c0 0.46 0.86 0.83 1.92 0.83z"/>
 <path class="cls-1" d="m200 86.57c1.05 0 1.91-0.37 1.91-0.82v-19.83c0-0.45-0.86-0.82-1.91-0.82-1.06 0-1.92 0.37-1.92 0.82v19.83c-0.03 0.45 0.83 0.82 1.92 0.82z"/>
 <path class="cls-1" d="m200 97.48c1.05 0 1.91-0.37 1.91-0.83v-8.83c0-0.46-0.86-0.83-1.91-0.83-1.06 0-1.92 0.37-1.92 0.83v8.83c-0.03 0.46 0.83 0.83 1.92 0.83z"/>
 <path class="cls-1" d="m206.16 101.82c1.05 0 1.91-0.37 1.91-0.83v-28.73c0-0.45-0.86-0.82-1.91-0.82-1.06 0-1.92 0.37-1.92 0.82v28.74c0 0.45 0.86 0.82 1.92 0.82z"/>
 <path class="cls-1" d="m206.16 70.72c1.05 0 1.91-0.37 1.91-0.83v-5.76c0-0.46-0.86-0.83-1.91-0.83-1.06 0-1.92 0.37-1.92 0.83v5.76c0 0.46 0.86 0.83 1.92 0.83z"/>
 <path class="cls-1" d="m200.16 64.16c1.06 0 1.91-0.37 1.91-0.83v-1.79c0-0.46-0.85-0.83-1.91-0.83s-1.92 0.37-1.92 0.83v1.79c0 0.46 0.86 0.83 1.92 0.83z"/>
 <rect class="cls-1" transform="scale(-1)" x="-189.5" y="-93.52" width="3.83" height="25.09" rx="1.47"/>
 <path class="cls-1" d="m218.54 95.86c1.05 0 1.91-0.37 1.91-0.83v-28.1c0-0.45-0.86-0.82-1.91-0.82-1.06 0-1.92 0.37-1.92 0.82v28.07c0 0.49 0.86 0.86 1.92 0.86z"/>
 <path class="cls-1" d="m181.4 88.45c-1.06 0-1.92-0.37-1.92-0.82v-13.29c0-0.46 0.86-0.83 1.92-0.83 1 0 1.91 0.37 1.91 0.83v13.29c0 0.45-0.86 0.82-1.91 0.82z"/>
 <path class="cls-1" d="m127.64 81.49c-1.06 0-1.92-0.37-1.92-0.82v-2.5c0-0.45 0.86-0.82 1.92-0.82s1.91 0.37 1.91 0.82v2.5c0 0.45-0.85 0.82-1.91 0.82z"/>
 <path class="cls-1" d="m323.68 81.41c-1.06 0-1.92-0.37-1.92-0.82v-2.5c0-0.45 0.86-0.82 1.92-0.82 1.05 0 1.91 0.37 1.91 0.82v2.5c0 0.41-0.86 0.82-1.91 0.82z"/>
 <path class="cls-1" d="m163.09 83.22h-0.52c-0.92 0-1.66-0.32-1.66-0.71v-14.4c0-0.46 0.86-0.83 1.92-0.83s1.91 0.37 1.91 0.83v14.4c0 0.39-0.74 0.71-1.65 0.71z"/>
 <path class="cls-1" d="m163.09 93h-0.52c-0.92 0-1.66-0.32-1.66-0.72v-7.36c0-0.45 0.86-0.82 1.92-0.82s1.91 0.37 1.91 0.82v7.38c0 0.4-0.74 0.7-1.65 0.7z"/>
 <path class="cls-1" d="m292.81 100.43c-1.06 0-1.91-0.37-1.91-0.83v-36.53c0-0.46 0.85-0.83 1.91-0.83s1.92 0.37 1.92 0.83v36.53c0 0.46-0.86 0.83-1.92 0.83z"/>
 <path class="cls-1" d="m261.86 89c-1.05 0-1.91-0.37-1.91-0.83v-18.17c0-0.45 0.86-0.82 1.91-0.82 1.06 0 1.92 0.37 1.92 0.82v18.16c0 0.46-0.86 0.84-1.92 0.84z"/>
 <path class="cls-1" d="m299 86.59c-1.06 0-1.91-0.37-1.91-0.82v-17.07c0-0.46 0.85-0.82 1.91-0.82s1.92 0.36 1.92 0.82v17.07c0 0.45-0.86 0.82-1.92 0.82z"/>
 <path class="cls-1" d="m299 94.17c-1.06 0-1.91-0.37-1.91-0.83v-5.24c0-0.45 0.85-0.82 1.91-0.82s1.92 0.37 1.92 0.82v5.24c0 0.46-0.86 0.83-1.92 0.83z"/>
 <rect class="cls-1" x="284.71" y="72.76" width="3.83" height="4.51" rx="1.47"/>
 <path class="cls-1" d="m286.62 104.66c-1.06 0-1.91-0.37-1.91-0.83v-24.65c0-0.45 0.85-0.82 1.91-0.82s1.92 0.37 1.92 0.82v24.65c0 0.46-0.86 0.83-1.92 0.83z"/>
 <path class="cls-1" d="m280.43 89.28c-1.06 0-1.91-0.37-1.91-0.83v-18.79c0-0.45 0.85-0.82 1.91-0.82s1.92 0.37 1.92 0.82v18.79c0 0.46-0.86 0.83-1.92 0.83z"/>
 <rect class="cls-1" x="303.28" y="78.05" width="3.83" height="17.09" rx="1.47"/>
 <path class="cls-1" d="m268.05 79.88c-1.06 0-1.91-0.37-1.91-0.83v-10.82c0-0.45 0.85-0.82 1.91-0.82s1.92 0.37 1.92 0.82v10.82c0.03 0.46-0.86 0.83-1.92 0.83z"/>
 <path class="cls-1" d="m268.05 93.44c-1.06 0-1.91-0.37-1.91-0.83v-11.42c0-0.46 0.85-0.83 1.91-0.83s1.92 0.37 1.92 0.83v11.42c0.03 0.46-0.86 0.83-1.92 0.83z"/>
 <path class="cls-1" d="m249.48 87.28c-1 0-1.91-0.37-1.91-0.83v-10.94c0-0.45 0.86-0.82 1.91-0.82 1.06 0 1.92 0.37 1.92 0.82v10.94c0 0.46-0.86 0.83-1.92 0.83z"/>
 <path class="cls-1" d="m243.29 90.91c-1 0-1.91-0.37-1.91-0.82v-18.21c0-0.46 0.86-0.83 1.91-0.83 1.06 0 1.92 0.37 1.92 0.83v18.21c0 0.45-0.86 0.82-1.92 0.82z"/>
 <path class="cls-1" d="m255.67 86.56c-1 0-1.91-0.37-1.91-0.83v-13.34c0-0.46 0.86-0.83 1.91-0.83 1.06 0 1.92 0.37 1.92 0.83v13.34c0 0.46-0.86 0.83-1.92 0.83z"/>
 <rect class="cls-1" x="272.33" y="71.7" width="3.83" height="14.72" rx="1.47"/>
 <path class="cls-1" d="m317.57 83.75c-1.06 0-1.92-0.37-1.92-0.82v-7.18c0-0.45 0.86-0.82 1.92-0.82s1.92 0.37 1.92 0.82v7.18c0 0.45-0.86 0.82-1.92 0.82z"/>
 <rect class="cls-1" x="309.47" y="73.56" width="3.83" height="8.23" rx="1.47"/>
 <path class="cls-1" d="m311.38 86.39c-1.06 0-1.91-0.37-1.91-0.83v-2.46c0-0.46 0.85-0.83 1.91-0.83s1.92 0.37 1.92 0.83v2.46c0 0.44-0.86 0.83-1.92 0.83z"/>
 <path class="cls-1" d="m34.7 90.53c-1.06 0-1.92-0.37-1.92-0.83v-15c0-0.46 0.86-0.83 1.92-0.83s1.91 0.37 1.91 0.83v15c0 0.46-0.85 0.83-1.91 0.83z"/>
 <path class="cls-1" d="m40.89 84.19c-1.06 0-1.92-0.37-1.92-0.83v-7.48c0-0.46 0.86-0.83 1.92-0.83s1.91 0.37 1.91 0.83v7.48c0 0.46-0.8 0.83-1.91 0.83z"/>
 <path class="cls-1" d="m16.39 82.74h-0.52c-0.91 0-1.66-0.32-1.66-0.72v-7.4c0-0.45 0.86-0.82 1.92-0.82s1.92 0.37 1.92 0.82v7.38c0 0.42-0.75 0.74-1.66 0.74z"/>
 <path class="cls-1" d="m96.6 79.43c-1.06 0-1.92-0.37-1.92-0.83v-12.86c0-0.46 0.86-0.83 1.92-0.83 1.05 0 1.91 0.37 1.91 0.83v12.86c0 0.46-0.86 0.83-1.91 0.83z"/>
 <path class="cls-1" d="m96.6 64c-1.06 0-1.92-0.37-1.92-0.83v-1.95c0-0.45 0.86-0.82 1.92-0.82 1.05 0 1.91 0.37 1.91 0.82v1.92c0 0.46-0.86 0.86-1.91 0.86z"/>
 <path class="cls-1" d="m96.6 98.32c-1.06 0-1.92-0.37-1.92-0.83v-16.82c0-0.45 0.86-0.82 1.92-0.82 1.05 0 1.91 0.37 1.91 0.82v16.82c0 0.51-0.86 0.83-1.91 0.83z"/>
 <path class="cls-1" d="m102.79 90.16c-1.06 0-1.92-0.37-1.92-0.82v-19.44c0-0.45 0.86-0.82 1.92-0.82 1 0 1.91 0.37 1.91 0.82v19.44c0 0.45-0.86 0.82-1.91 0.82z"/>
 <path class="cls-1" d="m90.41 72.94c-1.06 0-1.92-0.37-1.92-0.82v-8.38c0-0.45 0.86-0.82 1.92-0.82 1 0 1.91 0.37 1.91 0.82v8.38c0 0.45-0.86 0.82-1.91 0.82z"/>
 <path class="cls-1" d="m90.41 101.24c-1.06 0-1.92-0.37-1.92-0.82v-26c0-0.45 0.86-0.82 1.92-0.82 1 0 1.91 0.37 1.91 0.82v26c0 0.45-0.86 0.82-1.91 0.82z"/>
 <path class="cls-1" d="m22.58 86.1h-0.52c-0.91 0-1.66-0.32-1.66-0.72v-10.91c0-0.45 0.86-0.82 1.92-0.82s1.92 0.37 1.92 0.82v10.91c0 0.4-0.75 0.72-1.66 0.72z"/>
 <path class="cls-1" d="m22.58 73.05h-0.52c-0.91 0-1.66-0.32-1.66-0.71v-1.88c0-0.46 0.86-0.83 1.92-0.83s1.92 0.37 1.92 0.83v1.88c0 0.39-0.75 0.71-1.66 0.71z"/>
 <path class="cls-1" d="m78 97.45c1 0 1.91-0.37 1.91-0.83v-40.8c0-0.45-0.86-0.82-1.91-0.82-1.06 0-1.92 0.37-1.92 0.82v40.8c0.03 0.46 0.92 0.83 1.92 0.83z"/>
 <path class="cls-1" d="m78 104.26c1 0 1.91-0.37 1.91-0.83v-4.43c0-0.45-0.86-0.82-1.91-0.82-1.06 0-1.92 0.37-1.92 0.82v4.41c0.03 0.48 0.92 0.85 1.92 0.85z"/>
 <path class="cls-1" d="m59.46 100.93c1.06 0 1.91-0.37 1.91-0.83v-41c0-0.45-0.85-0.82-1.91-0.82s-1.92 0.37-1.92 0.82v41c0 0.46 0.86 0.83 1.92 0.83z"/>
 <path class="cls-1" d="m65.65 85.21c1.06 0 1.91-0.37 1.91-0.82v-19.83c0-0.45-0.85-0.82-1.91-0.82s-1.92 0.37-1.92 0.82v19.83c0 0.45 0.86 0.82 1.92 0.82z"/>
 <path class="cls-1" d="m65.65 96.12c1.06 0 1.91-0.37 1.91-0.83v-8.83c0-0.46-0.85-0.83-1.91-0.83s-1.92 0.37-1.92 0.83v8.83c0 0.46 0.86 0.83 1.92 0.83z"/>
 <path class="cls-1" d="m71.84 100.46c1.06 0 1.91-0.37 1.91-0.83v-28.73c0-0.45-0.85-0.82-1.91-0.82s-1.92 0.37-1.92 0.82v28.73c0 0.46 0.86 0.83 1.92 0.83z"/>
 <path class="cls-1" d="m71.84 69.36c1 0 1.91-0.37 1.91-0.82v-5.77c0-0.46-0.86-0.83-1.91-0.83-1.06 0-1.92 0.37-1.92 0.83v5.77c0 0.46 0.86 0.82 1.92 0.82z"/>
 <path class="cls-1" d="m71.84 61.22c1 0 1.91-0.36 1.91-0.82v-1.8c0-0.45-0.86-0.82-1.91-0.82-1.06 0-1.92 0.37-1.92 0.82v1.8c0 0.46 0.86 0.82 1.92 0.82z"/>
 <rect class="cls-1" transform="scale(-1)" x="-55.19" y="-92.16" width="3.83" height="25.09" rx="1.47"/>
 <path class="cls-1" d="m84.22 94.5c1 0 1.91-0.37 1.91-0.83v-28.1c0-0.45-0.86-0.82-1.91-0.82-1.06 0-1.92 0.37-1.92 0.82v28.1c0 0.46 0.86 0.83 1.92 0.83z"/>
 <path class="cls-1" d="m47.08 87.09c-1.06 0-1.92-0.37-1.92-0.82v-13.27c0-0.46 0.86-0.83 1.92-0.83s1.91 0.37 1.91 0.83v13.27c0.01 0.45-0.85 0.82-1.91 0.82z"/>
 <path class="cls-1" d="m9.94 80.34c-1.06 0-1.94-0.34-1.94-0.82v-2.52c0-0.45 0.86-0.82 1.92-0.82s1.92 0.37 1.92 0.82v2.5c0.02 0.5-0.84 0.84-1.9 0.84z"/>
 <path class="cls-1" d="m28.77 81.86h-0.52c-0.91 0-1.66-0.32-1.66-0.71v-14.4c0-0.46 0.86-0.83 1.92-0.83s1.91 0.37 1.91 0.83v14.4c0 0.39-0.74 0.71-1.65 0.71z"/>
 <path class="cls-1" d="m28.77 91.66h-0.52c-0.91 0-1.66-0.32-1.66-0.72v-7.38c0-0.45 0.86-0.82 1.92-0.82s1.91 0.37 1.91 0.82v7.38c0 0.4-0.74 0.72-1.65 0.72z"/>
 <path class="cls-1" d="m115.17 85.92c-1.06 0-1.92-0.37-1.92-0.83v-10.94c0-0.45 0.86-0.82 1.92-0.82 1 0 1.91 0.37 1.91 0.82v10.94c0 0.46-0.86 0.83-1.91 0.83z"/>
 <path class="cls-1" d="m109 89.55c-1.06 0-1.92-0.37-1.92-0.82v-18.21c0-0.46 0.86-0.83 1.92-0.83 1 0 1.91 0.37 1.91 0.83v18.21c-0.02 0.45-0.91 0.82-1.91 0.82z"/>
 <path class="cls-2" d="m29.87 34.08a14.9 14.9 0 0 1-5.66 11.67 20.28 20.28 0 0 1-13.67 4.87h-9.42v-50.62h9.42a13.4 13.4 0 0 1 8.34 2.7q3.56 2.7 3.55 6.36a7.35 7.35 0 0 1-2.31 5.32 12.45 12.45 0 0 1-6 3.24 19.87 19.87 0 0 1 11.29 5.78 14.9 14.9 0 0 1 4.46 10.68zm-11.07-25.02a7.66 7.66 0 0 0-2.69-5.74 8.15 8.15 0 0 0-5.57-2.49h-5.87v16.54h5.87a7.92 7.92 0 0 0 5.82-2.45 8 8 0 0 0 2.44-5.86zm7.43 25a15.32 15.32 0 0 0-4.58-11.14 15 15 0 0 0-11.11-4.66h-5.87v31.5h5.87a15.07 15.07 0 0 0 11.11-4.61 15.18 15.18 0 0 0 4.58-11.07z"/>
 <path class="cls-2" d="m68.77 50.62h-3.55v-5.82a16.82 16.82 0 0 1-14.08 7 17 17 0 0 1-12.5-5.24 17.14 17.14 0 0 1-5.22-12.56 17.12 17.12 0 0 1 5.2-12.59 17 17 0 0 1 12.48-5.2 17 17 0 0 1 12.51 5.19 17.2 17.2 0 0 1 5.16 12.6zm-3.55-16.62a18.3 18.3 0 0 0-4.13-12 12.42 12.42 0 0 0-19.91 0 18.3 18.3 0 0 0-4.13 12 18.28 18.28 0 0 0 4.13 12 12.42 12.42 0 0 0 19.91 0 18.28 18.28 0 0 0 4.13-12z"/>
 <path class="cls-2" d="m88.68 50.62h-3.47v-26.68a9.11 9.11 0 0 0-1.12-4.62q-1.11-2-2.52-1.95a6.23 6.23 0 0 0-4.29 1.63 6.81 6.81 0 0 0-2.23 4.12v27.5h-3.55v-33.17h3.55v3.24a6.85 6.85 0 0 1 6.52-4.07 6.68 6.68 0 0 1 5 2.21 7.13 7.13 0 0 1 2.11 5.11z"/>
 <path class="cls-2" d="m126.76 34a17.21 17.21 0 0 1-5.17 12.55 17.51 17.51 0 0 1-25 0 17.17 17.17 0 0 1-5.19-12.55 17.13 17.13 0 0 1 5.21-12.6 17 17 0 0 1 12.47-5.19 16.5 16.5 0 0 1 14.13 7.06v-23.27h3.55zm-3.55 0a18.3 18.3 0 0 0-4.13-12 12.42 12.42 0 0 0-19.91 0 18.25 18.25 0 0 0-4.17 12 18.23 18.23 0 0 0 4.13 12 12.42 12.42 0 0 0 19.91 0 18.28 18.28 0 0 0 4.17-12z"/>
 <path class="cls-2" d="m171.28 50.62h-3.64v-32.5h-9v32.5h-3.55v-50.62h3.55v17.37h9v-17.37h3.64z"/>
 <path class="cls-2" d="m242.3 18.7a2.23 2.23 0 0 1-4.46 0 2.23 2.23 0 0 1 0.5-1.33 3.42 3.42 0 0 0-2.07 2.74v30.51h-3.55v-33.25h3.55v0.83a4.35 4.35 0 0 1 3.8-1.74 2 2 0 0 1 2.23 2.24z"/>
 <path class="cls-2" d="m271.13 50.62a20.3 20.3 0 0 1-20.32 20.38 19.49 19.49 0 0 1-14.29-6 20.49 20.49 0 0 1-4.3-22.49l0.66 0.25a20.56 20.56 0 0 0-1.57 7.82 19 19 0 0 0 5.75 13.92 18.69 18.69 0 0 0 13.75 5.77 14.92 14.92 0 0 0 11.81-5.77 20.87 20.87 0 0 0 4.88-13.92q0-14.05-14.05-16.71a13 13 0 0 1-6.69-3.2 7.27 7.27 0 0 1-2.31-5.86 8.8 8.8 0 0 1 2.48-5.9 7.57 7.57 0 0 1 5.7-2.41 7.82 7.82 0 0 1 5.78 2.5 8.09 8.09 0 0 1 2.39 5.86 8.51 8.51 0 0 1-0.9 3.82l-0.42-0.25a7.87 7.87 0 0 0-1.4-9 7.13 7.13 0 0 0-5.29-2.29 4.44 4.44 0 0 0-3.55 1.86 7.69 7.69 0 0 0-1.49 5q0 5.56 6.12 6.73a21.72 21.72 0 0 1 12.39 6.48q4.86 5.18 4.87 13.41z"/>
 <path class="cls-2" d="m307.72 42a17.85 17.85 0 0 1-6.44 7.11 17.48 17.48 0 0 1-21.81-2.54 17.16 17.16 0 0 1-5.2-12.57 17.12 17.12 0 0 1 5.2-12.59 17 17 0 0 1 12.53-5.2 17.44 17.44 0 0 1 15.61 9.47l-29.33 12a17.53 17.53 0 0 0 4.92 9.52 12.19 12.19 0 0 0 8.8 3.8 12 12 0 0 0 7.72-2.78 17.12 17.12 0 0 0 5.16-7.36zm-3.3-16a15.26 15.26 0 0 0-5.08-6.6 12.2 12.2 0 0 0-7.34-2.4 12.51 12.51 0 0 0-9.92 5 18.3 18.3 0 0 0-4.18 12c0 0.67 0.06 1.67 0.17 3z"/>
 <path class="cls-2" d="m325.58 18a31.07 31.07 0 0 0-6.21-0.91 4.44 4.44 0 0 0-3.55 1.91 7.63 7.63 0 0 0-1.49 5q0 5.56 6.11 6.73a21.72 21.72 0 0 1 12.39 6.48q4.88 5.24 4.88 13.47a20.3 20.3 0 0 1-20.32 20.32 19.48 19.48 0 0 1-14.29-6 20.49 20.49 0 0 1-4.3-22.49l0.66 0.25a20.56 20.56 0 0 0-1.57 7.82 19.06 19.06 0 0 0 5.74 13.92 18.71 18.71 0 0 0 13.76 5.77 14.94 14.94 0 0 0 11.81-5.77 20.86 20.86 0 0 0 4.87-13.92q0-14.05-14-16.71a13 13 0 0 1-6.69-3.2 7.24 7.24 0 0 1-2.38-5.82 8.84 8.84 0 0 1 2.5-5.85c1.54-1.61 2.86-4.62 5-4 2.35 0.71 5 0.95 7.41 1.7"/>
 <path class="cls-2" d="m179.28 19 1.37 0.06a27.22 27.22 0 0 0-1.12 7.17 24 24 0 1 0 2-9.56h9.72v1.3h-11.65l0.34-0.88a25.32 25.32 0 1 1 5.7 27 25.46 25.46 0 0 1-5.42-8 25.13 25.13 0 0 1-2-9.85 26.28 26.28 0 0 1 1.06-7.24z"/>
 <path class="cls-3" d="m191.69 15.79v2.38a0.15 0.15 0 0 0 0 0.07 0.21 0.21 0 0 0 0 0.1 0.31 0.31 0 0 0 0.28 0.16h4.49a0.33 0.33 0 0 0 0.33-0.33v-2.38a0.33 0.33 0 0 0-0.33-0.33h-4.46a0.34 0.34 0 0 0-0.33 0.31z"/>
 <path class="cls-4" d="m213.34 38.15a12.42 12.42 0 0 0 4.6-8.39l1.57 0.17a14.08 14.08 0 0 1-15.51 12.46l0.18-1.57a12.45 12.45 0 0 0 9.16-2.67z"/>
 <path class="cls-4" d="m213.52 28.79 1.88 0.2a10.53 10.53 0 0 1-11.6 9.31l0.2-1.88a8.63 8.63 0 0 0 9.52-7.63z"/>
 <path class="cls-4" d="m206.9 20.43a6.31 6.31 0 0 1 3.17 4.47 6.69 6.69 0 0 1-9.92 7 6.3 6.3 0 0 1-3.15-4.43 6.69 6.69 0 0 1 9.9-7.04z"/>
 <path class="cls-5" d="m184.17 18.49h6.11v0.28a0.32 0.32 0 0 0 0.32 0.32h6.18a0.32 0.32 0 0 0 0.32-0.32v-3.67a0.32 0.32 0 0 0-0.32-0.32h-6.18a0.32 0.32 0 0 0-0.32 0.32v0.42h-4.65a20.86 20.86 0 0 1 25.63-8.69c6.88 2.66 12.79 10.92 13.08 18.29a20.89 20.89 0 0 1-29.88 19.88 20.23 20.23 0 0 1-11.56-15.63 21.37 21.37 0 0 1 1.27-10.88zm30.15 20.89a14 14 0 0 0 5.19-9.45l-1.57-0.17a12.49 12.49 0 0 1-13.79 11.06l-0.15 1.57a14 14 0 0 0 10.32-3.01zm1.08-10.38-1.88-0.2a8.63 8.63 0 0 1-9.52 7.62l-0.2 1.88a10.53 10.53 0 0 0 11.6-9.3zm-18.4-1.53a6.3 6.3 0 0 0 3.17 4.47 6.69 6.69 0 0 0 9.92-7 6.31 6.31 0 0 0-3.17-4.47 6.69 6.69 0 0 0-9.92 7z"/>
 <path class="cls-6" d="m335.85 18.67a14 14 0 0 1-3.34-0.1c-2.22-0.11-4.43-0.32-6.64-0.51a20.83 20.83 0 0 1-7.5-2.57c-0.17-0.08-0.33-0.18-0.21-0.38s0.38-0.13 0.57-0.09c1.37 0.31 2.73 0.66 4.11 0.94q5.24 1 10.48 2.05a9 9 0 0 1 2.53 0.66z"/>
 <path class="cls-6" d="m313.16 25.1c1.19 5.89 8 7.85 12.77 2.32-0.32 2.46-3.67 4.67-6.82 4.41a6.54 6.54 0 0 1-5.95-6.73z"/>
 <path class="cls-6" d="m333.22 26a8.82 8.82 0 0 0 3-0.31 4.85 4.85 0 0 0 1.87-1 1.8 1.8 0 0 0 0.71-2.32 14.69 14.69 0 0 1-0.57-1.76c1.61 1.65 1.65 3.71 0.28 5.09a4 4 0 0 1-5.29 0.3z"/>
 <path class="cls-6" d="m331 26c-1.27 1.12-2.72 1.23-4.14 1.75 0.79-0.98 1.67-1.35 4.14-1.75z"/>
 <path class="cls-6" d="m313.47 16.68a5.76 5.76 0 0 1 0.5-4.79c-0.16 1.6-0.36 3.19-0.5 4.79z"/>
 <path class="cls-2" d="m184.84 17.91h-28.84v-1.18h28.81z"/>
 <path class="cls-2" d="m64.58 41.14a16.58 16.58 0 0 1 1.5 6.69c1 0 2.11-0.1 3.11-0.18v-28.81h-3.1v20.16c-0.27-0.37-0.56-0.71-0.85-1a5.91 5.91 0 0 1-0.66 3.14z"/>
 <g class="cls-7" transform="scale(1.1818 .84616)" stroke-width="2.7035" aria-label="Musician Frenz  for Metaverse">
  <path d="m6.5236 147.08h1.626l2.4077-16.198 1.0788 16.198h1.5635l-1.5635-23.452h-1.5635l-2.7361 18.402-2.7361-18.402h-1.5635l-1.5635 23.452h1.5635l1.0788-16.198z"/>
  <path d="m21.799 145.52v-17.198h1.5635v18.762h-4.6904q-3.1269 0-3.1269-3.1269v-15.635h1.5635v15.635q0 1.5635 1.5635 1.5635z"/>
  <path d="m29.616 128.32h1.5635q3.1269 0 3.1269 3.1269v3.1269h-1.5635v-3.1269q0-1.5635-1.5635-1.5635h-1.5635q-1.5635 0-1.5635 1.5635v3.9087q0 1.5635 1.5635 1.5635h1.5635q3.1269 0 3.1269 3.1269v3.9087q0 3.1269-3.1269 3.1269h-1.5635q-3.1269 0-3.1269-3.1269v-3.1269h1.5635v3.1269q0 1.5635 1.5635 1.5635h1.5635q1.5635 0 1.5635-1.5635v-3.9087q0-1.5635-1.5635-1.5635h-1.5635q-3.1269 0-3.1269-3.1269v-3.9087q0-3.1269 3.1269-3.1269z"/>
  <path d="m37.433 129.88v-1.5635h1.5635v1.5635zm0 17.198v-15.635h1.5635v15.635z"/>
  <path d="m42.124 143.95q0 3.1269 3.1269 3.1269h1.5635q3.1269 0 3.1269-3.1269v-3.1269h-1.5635v3.1269q0 1.5635-1.5635 1.5635h-1.5635q-1.5635 0-1.5635-1.5635v-12.508q0-1.5635 1.5635-1.5635h1.5635q1.5635 0 1.5635 1.5635v3.1269h1.5635v-3.1269q0-3.1269-3.1269-3.1269h-1.5635q-3.1269 0-3.1269 3.1269z"/>
  <path d="m53.068 129.88v-1.5635h1.5635v1.5635zm0 17.198v-15.635h1.5635v15.635z"/>
  <path d="m64.012 134.57h-3.1269q-1.5635 0-1.5635 1.5635v7.8173q0 1.5635 1.5635 1.5635h3.1269zm0-1.5635v-1.5635q0-1.5635-1.5635-1.5635h-3.9087v-1.5635h3.9087q3.1269 0 3.1269 3.1269v15.635h-4.6904q-3.1269 0-3.1269-3.1269v-7.8173q0-3.1269 3.1269-3.1269z"/>
  <path d="m70.266 129.88v17.198h-1.5635v-18.762h4.6904q3.1269 0 3.1269 3.1269v15.635h-1.5635v-15.635q0-1.5635-1.5635-1.5635z"/>
  <path d="m87.589 123.63v23.452h1.5635v-10.944h6.2539v-1.5635h-6.2539v-9.3808h6.2539v-1.5635z"/>
  <path d="m100.1 147.08h-1.5635v-18.762h1.5635v0.26579q0.64103-0.26579 1.5635-0.26579h1.5635q3.1269 0 3.1269 3.1269h-1.5635q0-1.5635-1.5635-1.5635h-1.5635q-1.5635 0-1.5635 1.5635z"/>
  <path d="m111.04 140.83h3.1269q1.5635 0 1.5635-1.5635v-7.8173q0-1.5635-1.5635-1.5635h-1.5635q-1.5635 0-1.5635 1.5635zm0 1.5635v1.5635q0 1.5635 1.5635 1.5635h3.9087v1.5635h-3.9087q-3.1269 0-3.1269-3.1269v-12.508q0-3.1269 3.1269-3.1269h1.5635q3.1269 0 3.1269 3.1269v7.8173q0 3.1269-3.1269 3.1269z"/>
  <path d="m121.99 129.88v17.198h-1.5635v-18.762h4.6904q3.1269 0 3.1269 3.1269v15.635h-1.5635v-15.635q0-1.5635-1.5635-1.5635z"/>
  <path d="m137.1 129.88h-5.7379v-1.5635h7.8173l-5.7379 17.198h5.7379v1.5635h-7.8173z"/>
  <path d="m153.51 126.76q0-1.5635 1.5635-1.5635h4.6904v-1.5635h-4.6904q-3.1269 0-3.1269 3.1269v20.325h1.5635v-14.071h3.5334v-1.5635h-3.5334z"/>
  <path d="m166.01 128.32q-3.1269 0-3.1269 3.1269v12.508q0 3.1269 3.1269 3.1269h1.5635q3.1269 0 3.1269-3.1269v-12.508q0-3.1269-3.1269-3.1269zm0 17.198q-1.5635 0-1.5635-1.5635v-12.508q0-1.5635 1.5635-1.5635h1.5635q1.5635 0 1.5635 1.5635v6.1913h0.18762l-0.18762 0.3127v6.0037q0 1.5635-1.5635 1.5635z"/>
  <path d="m175.39 147.08h-1.5635v-18.762h1.5635v0.26579q0.64102-0.26579 1.5635-0.26579h1.5635q3.1269 0 3.1269 3.1269h-1.5635q0-1.5635-1.5635-1.5635h-1.5635q-1.5635 0-1.5635 1.5635z"/>
  <path d="m196.99 147.08h1.626l2.4077-16.198 1.0788 16.198h1.5635l-1.5635-23.452h-1.5635l-2.7361 18.402-2.7361-18.402h-1.5635l-1.5635 23.452h1.5635l1.0788-16.198z"/>
  <path d="m207.57 140.83h3.1269q1.5635 0 1.5635-1.5635v-7.8173q0-1.5635-1.5635-1.5635h-1.5635q-1.5635 0-1.5635 1.5635zm0 1.5635v1.5635q0 1.5635 1.5635 1.5635h3.9087v1.5635h-3.9087q-3.1269 0-3.1269-3.1269v-12.508q0-3.1269 3.1269-3.1269h1.5635q3.1269 0 3.1269 3.1269v7.8173q0 3.1269-3.1269 3.1269z"/>
  <path d="m218.51 123.63h-1.5635v20.325q0 3.1269 3.1269 3.1269h1.5635q3.1269 0 3.1269-3.1269v-7.0043h-1.5635v7.0043q0 1.5635-1.5635 1.5635h-1.5635q-1.5635 0-1.5635-1.5635v-12.508h3.5334v-1.5635h-3.5334z"/>
  <path d="m234.15 134.57h-3.1269q-1.5635 0-1.5635 1.5635v7.8173q0 1.5635 1.5635 1.5635h3.1269zm0-1.5635v-1.5635q0-1.5635-1.5635-1.5635h-3.9087v-1.5635h3.9087q3.1269 0 3.1269 3.1269v15.635h-4.6904q-3.1269 0-3.1269-3.1269v-7.8173q0-3.1269 3.1269-3.1269z"/>
  <path d="m241.18 147.08-3.1269-18.762h1.5635l2.3452 14.071 2.3452-14.071h1.5635l-3.1269 18.762z"/>
  <path d="m249.78 140.83h3.1269q1.5635 0 1.5635-1.5635v-7.8173q0-1.5635-1.5635-1.5635h-1.5635q-1.5635 0-1.5635 1.5635zm0 1.5635v1.5635q0 1.5635 1.5635 1.5635h3.9087v1.5635h-3.9087q-3.1269 0-3.1269-3.1269v-12.508q0-3.1269 3.1269-3.1269h1.5635q3.1269 0 3.1269 3.1269v7.8173q0 3.1269-3.1269 3.1269z"/>
  <path d="m260.73 147.08h-1.5635v-18.762h1.5635v0.26579q0.64102-0.26579 1.5635-0.26579h1.5635q3.1269 0 3.1269 3.1269h-1.5635q0-1.5635-1.5635-1.5635h-1.5635q-1.5635 0-1.5635 1.5635z"/>
  <path d="m273.24 128.32h1.5635q3.1269 0 3.1269 3.1269v3.1269h-1.5635v-3.1269q0-1.5635-1.5635-1.5635h-1.5635q-1.5635 0-1.5635 1.5635v3.9087q0 1.5635 1.5635 1.5635h1.5635q3.1269 0 3.1269 3.1269v3.9087q0 3.1269-3.1269 3.1269h-1.5635q-3.1269 0-3.1269-3.1269v-3.1269h1.5635v3.1269q0 1.5635 1.5635 1.5635h1.5635q1.5635 0 1.5635-1.5635v-3.9087q0-1.5635-1.5635-1.5635h-1.5635q-3.1269 0-3.1269-3.1269v-3.9087q0-3.1269 3.1269-3.1269z"/>
  <path d="m282.62 140.83h3.1269q1.5635 0 1.5635-1.5635v-7.8173q0-1.5635-1.5635-1.5635h-1.5635q-1.5635 0-1.5635 1.5635zm0 1.5635v1.5635q0 1.5635 1.5635 1.5635h3.9087v1.5635h-3.9087q-3.1269 0-3.1269-3.1269v-12.508q0-3.1269 3.1269-3.1269h1.5635q3.1269 0 3.1269 3.1269v7.8173q0 3.1269-3.1269 3.1269z"/>
 </g>
</svg>
